<svg width="160" height="17" viewBox="0 0 160 17" fill="none" xmlns="http://www.w3.org/2000/svg">
<path fill-rule="evenodd" clip-rule="evenodd" d="M42.0842 -0.00012207C37.6461 -0.00012207 34.0483 3.59764 34.0483 8.03571C34.0483 12.4738 37.6461 16.0715 42.0842 16.0715C46.5222 16.0715 50.12 12.4738 50.12 8.03571C50.12 3.59764 46.5222 -0.00012207 42.0842 -0.00012207Z" fill="#3375F6"/>
<path d="M29.6909 16.0715V-0.00012207H22.9053V16.0715H29.6909Z" fill="#3375F6"/>
<path fill-rule="evenodd" clip-rule="evenodd" d="M9.27901 16.0715L0 -0.000177383H18.558L9.27901 16.0715Z" fill="#3375F6"/>
<path d="M159.264 12.9861C159.264 15.1435 157.677 16.053 155.308 16.053C154.526 16.053 153.003 15.9683 151.967 15.7357C151.692 15.6722 151.522 15.5453 151.522 15.3127V14.5724C151.522 14.382 151.692 14.2551 151.903 14.2551C151.945 14.2551 151.967 14.2551 151.988 14.2551C153.003 14.382 154.547 14.4878 155.308 14.4878C156.683 14.4878 157.402 14.1282 157.402 12.9861C157.402 12.3516 157.022 11.9497 155.816 11.2306L153.68 9.96152C152.39 9.17894 151.522 8.26946 151.522 6.93696C151.522 4.73728 153.172 4.1239 155.351 4.1239C156.535 4.1239 157.656 4.22966 158.65 4.39886C158.925 4.44116 159.052 4.58922 159.052 4.82188V5.51985C159.052 5.77366 158.904 5.87942 158.693 5.87942C158.671 5.87942 158.65 5.87942 158.629 5.87942C157.889 5.81596 156.535 5.71021 155.351 5.71021C154.166 5.71021 153.384 5.85827 153.384 6.93696C153.384 7.57148 153.87 7.97335 154.843 8.54442L156.937 9.79232C158.693 10.8287 159.264 11.7382 159.264 12.9861Z" fill="white"/>
<path d="M149.408 10.2153C149.408 10.4903 149.26 10.6806 149.006 10.6806H141.921V10.9345C141.921 13.3668 143.063 14.4878 145.009 14.4878C146.236 14.4878 147.653 14.3397 148.626 14.1917C148.668 14.1917 148.689 14.1917 148.731 14.1917C148.901 14.1917 149.07 14.2763 149.07 14.4878V15.2069C149.07 15.4819 148.985 15.6299 148.647 15.6934C147.441 15.926 146.426 16.053 145.009 16.053C142.577 16.053 140.06 14.8897 140.06 10.8287V9.34815C140.06 6.34474 141.73 4.1239 144.755 4.1239C147.843 4.1239 149.408 6.32358 149.408 9.327V10.2153ZM147.526 9.26355V9.15779C147.526 6.89466 146.616 5.75251 144.755 5.75251C142.936 5.75251 141.921 6.97926 141.921 9.15779V9.26355H147.526Z" fill="white"/>
<path d="M137.525 15.4819C137.525 15.7145 137.377 15.9049 137.144 15.9049H136.044C135.812 15.9049 135.664 15.7145 135.664 15.4819V7.82529C135.664 6.00632 134.881 5.75251 133.76 5.75251H133.273C131.92 5.75251 131.454 5.98517 131.454 7.19077V15.4819C131.454 15.7145 131.306 15.9049 131.074 15.9049H129.974C129.741 15.9049 129.593 15.7145 129.593 15.4819V7.19077C129.593 5.98517 129.128 5.75251 127.774 5.75251H127.288C126.188 5.75251 125.384 6.00632 125.384 7.82529V15.4819C125.384 15.7145 125.236 15.9049 125.004 15.9049H123.904C123.671 15.9049 123.523 15.7145 123.523 15.4819V7.82529C123.523 5.64676 124.75 4.1239 127.288 4.1239H127.774C129.043 4.1239 129.868 4.29311 130.524 4.88533C131.158 4.33541 132.004 4.1239 133.273 4.1239H133.76C136.298 4.1239 137.525 5.64676 137.525 7.82529V15.4819Z" fill="white"/>
<path d="M120.646 15.08C120.646 15.355 120.583 15.4819 120.202 15.5665C119.081 15.8414 117.6 16.053 116.31 16.053C113.159 16.053 111.699 14.0013 111.699 10.8287V9.34815C111.699 6.17553 113.137 4.1239 116.31 4.1239C117.579 4.1239 119.081 4.33541 120.202 4.61037C120.583 4.69497 120.646 4.80073 120.646 5.09684V15.08ZM118.785 14.2763V5.90057C118.214 5.79481 117.198 5.68906 116.31 5.68906C114.216 5.68906 113.56 7.10616 113.56 9.34815V10.8287C113.56 13.0495 114.216 14.4878 116.31 14.4878C117.198 14.4878 118.193 14.382 118.785 14.2763Z" fill="white"/>
<path d="M108.985 15.2704C108.985 15.5031 108.837 15.6935 108.605 15.7358C107.568 15.905 106.384 16.053 104.396 16.053C101.752 16.053 98.9175 14.3187 98.9175 9.47513V6.64092C98.9175 1.50127 101.879 0.0418701 104.586 0.0418701C106.553 0.0418701 107.801 0.211077 108.605 0.337981C108.795 0.359133 108.964 0.443736 108.964 0.655244V1.71278C108.964 1.86084 108.88 1.92429 108.689 1.92429C108.668 1.92429 108.626 1.92429 108.605 1.92429C107.357 1.81854 106.384 1.77624 104.586 1.77624C102.619 1.77624 100.842 2.83378 100.842 6.64092V9.47513C100.842 12.965 102.429 14.3398 104.396 14.3398C105.686 14.3398 106.553 14.2552 107.061 14.2129V8.16378C107.061 7.93112 107.209 7.74076 107.441 7.74076H108.583C108.795 7.74076 108.985 7.93112 108.985 8.16378V15.2704Z" fill="white"/>
<path d="M91.5454 15.2503C91.5454 15.5464 91.3762 15.6522 91.0801 15.7368C90.6359 15.8849 89.4092 16.0964 87.9286 16.0964C84.7137 16.0964 81.668 14.4043 81.668 9.37041V6.70541C81.668 1.67152 84.7137 0.000610352 87.9286 0.000610352C89.4092 0.000610352 90.6359 0.212118 91.0801 0.360174C91.3762 0.444778 91.5454 0.52938 91.5454 0.825491V2.87712C91.5454 3.13093 91.4185 3.30013 91.1224 3.30013C91.1224 3.30013 91.1012 3.30013 91.0801 3.30013C90.2763 3.23668 89.113 3.13093 87.9498 3.13093C86.4904 3.13093 85.3271 3.89236 85.3271 6.70541V9.37041C85.3271 12.1835 86.4904 12.9449 87.9498 12.9449C89.113 12.9449 90.2763 12.8391 91.0801 12.7757C91.1012 12.7757 91.1224 12.7757 91.1224 12.7757C91.4185 12.7757 91.5454 12.9449 91.5454 13.1987V15.2503Z" fill="white"/>
<path d="M79.0767 15.4826C79.0767 15.7152 78.9075 15.9056 78.6749 15.9056H75.8407C75.608 15.9056 75.46 15.7152 75.46 15.4826V0.592417C75.46 0.359758 75.608 0.190552 75.8407 0.190552H78.6749C78.9075 0.190552 79.0767 0.359758 79.0767 0.592417V15.4826Z" fill="white"/>
<path d="M72.5022 14.277C72.5022 15.3134 72.1215 15.6095 71.2331 15.7364C70.3871 15.8633 67.7433 16.096 66.6223 16.096C62.8786 16.096 60.3193 14.8692 60.3193 10.0468V0.592417C60.3193 0.359758 60.5097 0.190552 60.7424 0.190552H63.5131C63.7458 0.190552 63.9361 0.359758 63.9361 0.592417V10.0468C63.9361 12.2042 64.5072 13.0714 66.4108 13.0714C67.1299 13.0714 68.1663 13.0079 68.8854 12.9233V0.592417C68.8854 0.359758 69.0758 0.190552 69.3084 0.190552H72.058C72.2907 0.190552 72.5022 0.359758 72.5022 0.592417V14.277Z" fill="white"/>
</svg>
