<svg width="119" height="40" viewBox="0 0 119 40" fill="none" xmlns="http://www.w3.org/2000/svg">
<path d="M43.2337 34.0217C43.4981 33.3166 44.2781 32.9797 44.9886 33.2184C45.6801 33.4507 46.3866 33.6218 47.1272 33.6218C48.1484 33.6218 49.0236 33.431 49.753 33.0494C51.1671 32.3928 51.6909 30.7237 52.2912 29.3951L45.1883 10.339C44.9407 9.67479 45.4287 8.96624 46.1338 8.96624H50.3624C50.9398 8.96624 51.4529 9.33661 51.6379 9.88689L55.3545 20.9418L59.0711 9.88689C59.2561 9.33661 59.7693 8.96624 60.3467 8.96624H64.3056C65.0127 8.96624 65.5008 9.67836 65.2496 10.3433L57.2363 31.5525C56.3027 33.9593 55.0774 35.8085 53.5603 37.0999C52.0432 38.4208 50.0447 39.0812 47.5649 39.0812C46.1031 39.0812 44.673 38.8123 43.3004 38.3443C42.4593 38.0575 42.076 37.1095 42.3895 36.2735L43.2337 34.0217Z" fill="white"/>
<path d="M36.5974 27.59C35.0526 29.1441 33.0914 29.5808 30.8859 29.5712C26.9666 29.5542 23.708 27.6217 22.4184 23.8916C21.4447 21.0752 21.4241 17.6795 22.4184 14.866C23.7249 11.1691 26.9632 8.96624 30.9083 8.96624C33.0276 8.96624 35.0072 9.26813 36.5974 10.6833V10.3209C36.5974 9.57276 37.2002 8.96624 37.9439 8.96624H42.7375V29.5712H37.9439C37.2002 29.5712 36.5974 28.9647 36.5974 28.2165V27.59ZM35.7659 23.1432C36.5536 22.1159 36.9475 20.8244 36.9475 19.2687C36.9475 17.5076 36.5098 16.1721 35.6346 15.2622C33.9216 13.4199 30.6405 13.3904 29.0703 15.4383C27.4697 17.5441 27.5107 21.0961 29.114 23.1872C30.7193 25.2208 34.1903 25.198 35.7659 23.1432Z" fill="white"/>
<path d="M10.9148 1.04126H5.24589C3.73764 1.04126 2.98352 1.04126 2.40744 1.33657C1.90071 1.59633 1.48873 2.01081 1.23054 2.52062C0.937012 3.10019 0.937012 3.85889 0.937012 5.37629V6.32458H10.3896C11.79 6.32458 12.8695 6.69148 13.628 7.42527C13.7265 7.51333 13.8188 7.6046 13.905 7.69907C14.508 8.3604 14.8096 9.17904 14.8096 10.155C14.8096 10.2284 14.8082 10.301 14.8053 10.3729C14.7626 11.4512 14.3993 12.3619 13.7155 13.1048C13.628 13.2039 13.5343 13.2968 13.4345 13.3835C12.7357 13.9902 11.7353 14.2936 10.4334 14.2936H0.937012V25.2362C0.937012 26.7536 0.937012 27.5123 1.23054 28.0919C1.48873 28.6017 1.90071 29.0161 2.40744 29.2759C2.98352 29.5712 3.73765 29.5712 5.2459 29.5712H6.7843V19.3568H11.0461C12.5048 19.3568 13.8322 19.1513 15.0284 18.7404C16.2537 18.3295 17.304 17.7278 18.1793 16.9353C19.0545 16.1134 19.7255 15.1008 20.1923 13.8973C20.6883 12.6646 20.9363 11.2557 20.9363 9.67069C20.9363 8.34986 20.7029 7.16111 20.2361 6.10444C19.7693 5.04778 19.0983 4.15255 18.223 3.41875C17.3478 2.65561 16.2829 2.06857 15.0284 1.65765C13.8031 1.24672 12.4319 1.04126 10.9148 1.04126Z" fill="white"/>
<path d="M98.8093 10.38C98.5256 9.70978 99.0144 8.96586 99.7384 8.96586H104.024C104.582 8.96586 105.082 9.31207 105.281 9.83634L109.02 19.6646L112.717 9.84089C112.915 9.31424 113.416 8.96586 113.976 8.96586H117.989C118.715 8.96586 119.204 9.71272 118.917 10.3833L110.989 28.9275C110.777 29.4247 110.291 29.7469 109.753 29.7469H107.897C107.357 29.7469 106.87 29.4226 106.658 28.923L98.8093 10.38Z" fill="#8390A6"/>
<path d="M88.0441 24.6837C88.8026 24.6837 89.459 24.537 90.0134 24.2435C90.5969 23.95 91.0782 23.5684 91.4575 23.0988C91.866 22.5998 92.1577 22.0274 92.3328 21.3817C92.537 20.7066 92.6391 20.0021 92.6391 19.2683C92.6391 18.5345 92.537 17.8448 92.3328 17.199C92.1577 16.5239 91.866 15.9516 91.4575 15.482C91.0782 14.983 90.5969 14.5867 90.0134 14.2932C89.459 13.9997 88.8026 13.8529 88.0441 13.8529C87.2855 13.8529 86.6145 13.9997 86.031 14.2932C85.4767 14.5867 84.9953 14.983 84.5869 15.482C84.2076 15.9516 83.9158 16.5239 83.7116 17.199C83.5074 17.8448 83.4053 18.5345 83.4053 19.2683C83.4053 20.0021 83.5074 20.7066 83.7116 21.3817C83.9158 22.0274 84.2076 22.5998 84.5869 23.0988C84.9953 23.5684 85.4767 23.95 86.031 24.2435C86.6145 24.537 87.2855 24.6837 88.0441 24.6837ZM88.0441 30.2312C86.3811 30.2312 84.8786 29.9524 83.5366 29.3947C82.2237 28.8077 81.0859 28.0299 80.1231 27.0612C79.1895 26.0633 78.4748 24.9039 77.9788 23.5831C77.4828 22.2329 77.2348 20.7946 77.2348 19.2683C77.2348 17.7421 77.4828 16.3185 77.9788 14.9977C78.4748 13.6768 79.1895 12.5174 80.1231 11.5195C81.0859 10.5215 82.2237 9.74368 83.5366 9.186C84.8786 8.59896 86.3811 8.30545 88.0441 8.30545C89.707 8.30545 91.1949 8.59896 92.5078 9.186C93.8498 9.74368 94.9877 10.5215 95.9212 11.5195C96.884 12.5174 97.6134 13.6768 98.1094 14.9977C98.6053 16.3185 98.8533 17.7421 98.8533 19.2683C98.8533 20.7946 98.6053 22.2329 98.1094 23.5831C97.6134 24.9039 96.884 26.0633 95.9212 27.0612C94.9877 28.0299 93.8498 28.8077 92.5078 29.3947C91.1949 29.9524 89.707 30.2312 88.0441 30.2312Z" fill="#8390A6"/>
<path d="M68.0186 3.62834C68.0186 2.13198 69.2243 0.918945 70.7116 0.918945H74.4953V29.5708H70.7116C69.2243 29.5708 68.0186 28.3578 68.0186 26.8614V3.62834Z" fill="#8390A6"/>
<ellipse cx="10.6516" cy="10.326" rx="1.85474" ry="1.866" fill="white"/>
</svg>
